<svg xmlns="http://www.w3.org/2000/svg" width="84.792" height="25.268" viewBox="0 0 84.792 25.268">
  <path id="e9b1" d="M58.506-23.91V1.358H84.792V-23.91Zm20.52,19.5a13.063,13.063,0,0,1-6.359,1.526,9.6,9.6,0,0,1-4.918-1.187,9.765,9.765,0,0,1-3.307-3.137A10.078,10.078,0,0,1,63.255-11.7a8.523,8.523,0,0,1,2.756-6.487,9.377,9.377,0,0,1,6.656-2.586,15.556,15.556,0,0,1,6.19,1.441l-.085,2.713A11.763,11.763,0,0,0,72.836-18.4a7,7,0,0,0-5.045,1.908A6.257,6.257,0,0,0,65.8-11.785a6.2,6.2,0,0,0,2.035,4.706,7.04,7.04,0,0,0,5,1.908,11.388,11.388,0,0,0,6.19-1.95ZM29.338,1.358h26.2V-23.91h-26.2Zm8.055-21.452h4.494a8.013,8.013,0,0,1,3.476.594,4.227,4.227,0,0,1,1.781,1.569,4.4,4.4,0,0,1,.594,2.332,3.763,3.763,0,0,1-2.629,3.646,5.042,5.042,0,0,1,3.01,1.526A4.639,4.639,0,0,1,49.264-7.46,4.729,4.729,0,0,1,48.5-5.086a5.177,5.177,0,0,1-1.993,1.7,7.068,7.068,0,0,1-3.264.678H37.308V-20.094Zm6.953,6.7a2.775,2.775,0,0,0,.848-2.035q0-2.544-3.222-2.544h-2.12v5.257h1.611A4.694,4.694,0,0,0,44.346-13.4ZM46.3-6.273A2.542,2.542,0,0,0,46.72-7.63,3.325,3.325,0,0,0,46.211-9.2a2.65,2.65,0,0,0-1.314-.975,7.338,7.338,0,0,0-2.756-.254H39.852v5.511h2.459a10.359,10.359,0,0,0,2.713-.254A4.162,4.162,0,0,0,46.3-6.273ZM0,1.358H26.285V-23.91H0ZM7.97-20.094h4.579a8.609,8.609,0,0,1,3.434.551,3.855,3.855,0,0,1,1.823,1.569,5.3,5.3,0,0,1,.678,2.374,4.078,4.078,0,0,1-2.713,3.731,5.246,5.246,0,0,1,3.052,1.526,4.083,4.083,0,0,1,1.1,2.883A4.331,4.331,0,0,1,19.248-5a4.868,4.868,0,0,1-1.993,1.653,7.693,7.693,0,0,1-3.349.636H7.97Zm7.038,6.7a2.6,2.6,0,0,0,.848-2.035q0-2.544-3.222-2.544h-2.12v5.257h1.7A4.518,4.518,0,0,0,15.008-13.4Zm1.95,7.207A3.366,3.366,0,0,0,17.3-7.715a2.051,2.051,0,0,0-.424-1.357,2.693,2.693,0,0,0-1.272-1.06,8.838,8.838,0,0,0-2.8-.3H10.514v5.511h2.459a7.84,7.84,0,0,0,2.756-.339A2.8,2.8,0,0,0,16.958-6.189Zm0,0" transform="translate(0 23.91)" fill="#b6c5cb"/>
</svg>
