<svg xmlns="http://www.w3.org/2000/svg" width="82.871" height="14.667" viewBox="0 0 82.871 14.667">
  <path id="e9b8" d="M0-18.45H6.961a3.471,3.471,0,0,1,2.362.829,3.655,3.655,0,0,1,1.2,2.154,3.541,3.541,0,0,1-.373,2.444,2.894,2.894,0,0,1-1.782,1.45l-.166.083a3.16,3.16,0,0,1,2.569,2.735,3.94,3.94,0,0,1-.58,3.107A3.555,3.555,0,0,1,7.458-4.2,11.431,11.431,0,0,1,5.8-4.114H0Zm3.149,11.6.083.083h2.9a1.876,1.876,0,0,0,1.16-.5,1.657,1.657,0,0,0,.456-1.119A1.388,1.388,0,0,0,7.375-9.5a2.305,2.305,0,0,0-1.16-.58H3.149Zm-.083-5.966H6.215a1.324,1.324,0,0,0,1.2-.994,1.554,1.554,0,0,0-.249-1.409,1.454,1.454,0,0,0-1.2-.58h-2.9ZM55.6-3.866a10.35,10.35,0,0,0-1.077-.166,5.031,5.031,0,0,1-3.149-2.113,5.3,5.3,0,0,1-.829-3.687,5.069,5.069,0,0,1,3.48-4.64,5.364,5.364,0,0,1,4.516.331,5.122,5.122,0,0,1,2.527,4.06l.083,1.657H53.365a2.382,2.382,0,0,0,1.574,1.989,4.049,4.049,0,0,0,3.977-.5l.166-.083a.073.073,0,0,1,.083-.083l1.243,1.823-1.16.746a8.1,8.1,0,0,1-2.4.663H55.6Zm2.817-6.463a1.732,1.732,0,0,0-.746-1.616,3.22,3.22,0,0,0-1.989-.621,2.839,2.839,0,0,0-1.657.746,1.714,1.714,0,0,0-.663,1.492Zm8.369,6.463-.663-.083-.663-.166a4.96,4.96,0,0,1-2.61-1.657,4.783,4.783,0,0,1-1.119-2.9,5.314,5.314,0,0,1,1.989-5.055A5.536,5.536,0,0,1,66.871-14.8a5.048,5.048,0,0,1,3.232.912,5.143,5.143,0,0,1,1.989,3.315,2.676,2.676,0,0,1,.166.994v1.16H64.551a2.25,2.25,0,0,0,.663,1.409,3.283,3.283,0,0,0,3.066.829A3.679,3.679,0,0,0,70.269-7.1l1.243,1.823-.912.663a7.712,7.712,0,0,1-2.569.746H66.789Zm-2.237-6.463h5.055a1.771,1.771,0,0,0-.7-1.574,2.8,2.8,0,0,0-1.864-.663,2.556,2.556,0,0,0-1.823.7A1.817,1.817,0,0,0,64.551-10.329ZM15.661-3.866a8.268,8.268,0,0,0-.994-.166A4.06,4.06,0,0,1,12.305-5.44a4.085,4.085,0,0,1-.87-2.652v-6.381H14.17v6.049a1.968,1.968,0,0,0,1.077,1.989,2.291,2.291,0,0,0,2.569-.249,2.117,2.117,0,0,0,.829-1.74v-6.049H21.3v6.3A4.311,4.311,0,0,1,20.26-5.192a4.086,4.086,0,0,1-2.776,1.326l-.414.083ZM41.6-4.114V-18.45h9.944v2.237q.083.414-.331.414H44.664v2.983H49.47a.366.366,0,0,1,.414.414v2.237h-5.22v6.049Zm31.323,0V-14.141q0-.331.083-.373a1.212,1.212,0,0,1,.414-.041h2.237q1.326,0,2.237.083a4.922,4.922,0,0,1,4.64,3.232A5.374,5.374,0,0,1,82.7-8.009a4.768,4.768,0,0,1-1.657,2.652,5.443,5.443,0,0,1-3.315,1.243Zm2.652-2.237h1.492a3.212,3.212,0,0,0,2.154-.7,2.757,2.757,0,0,0,.912-2.03,2.742,2.742,0,0,0-.29-1.823,2.5,2.5,0,0,0-1.284-1.16,3.819,3.819,0,0,0-1.492-.249H75.572Zm-48.724-5.8h-4.64v-2.32H30.66v1.326a1.356,1.356,0,0,1-.414.994L25.854-6.518H30.66v2.4H22.208V-6.1a.854.854,0,0,1,.166-.331l4.309-5.386Zm4.558,0v-2.072l.083-.249h8.369v1.823a.854.854,0,0,1-.166.331l-4.558,5.8h4.475a.293.293,0,0,1,.331.331v2.072H31.488V-6.1a.636.636,0,0,1,.083-.249l4.558-5.8Zm0,0" transform="translate(0 18.45)" fill="#b6c5cb"/>
</svg>
