<svg xmlns="http://www.w3.org/2000/svg" width="83.944" height="21.827" viewBox="0 0 83.944 21.827">
  <path id="e9da" d="M7.719-20.4h4.447l.5.168a5.442,5.442,0,0,1,2.853,2.853q.252.671.42,1.091l.168.5a2.523,2.523,0,0,0,.42-.084l.5-.168-.168-5.706H0v.671l.587.084a2.062,2.062,0,0,1,1.259.42,2.281,2.281,0,0,1,.923,1.51A61.7,61.7,0,0,1,3.1-10.419q-.084,3.86-.168,5.16A8.461,8.461,0,0,1,2.6-3.2a1.936,1.936,0,0,1-1.594,1.51l-.923.168v.671h10.74v-.671a5.234,5.234,0,0,1-.965-.168,5.539,5.539,0,0,1-.881-.252A2.054,2.054,0,0,1,8.1-3.036a7.521,7.521,0,0,1-.378-2.182Q7.635-6.224,7.551-8.49a12.214,12.214,0,0,1,0-2.307,8.709,8.709,0,0,1,1.384.042q1.3.084,1.552.084,1.259.336,1.762,2.265l.168.587h.671v-6.964h-.671a.074.074,0,0,0-.084.084,4.116,4.116,0,0,1-.461,1.51,1.87,1.87,0,0,1-1.384,1.175,12.221,12.221,0,0,1-1.594.168,4.373,4.373,0,0,1-1.342,0,38.814,38.814,0,0,1,0-4.111q.084-4.027.168-4.363Zm19.634,5.957a6.755,6.755,0,0,0-4.867-1.762A7.148,7.148,0,0,0,17.2-14.2a8.228,8.228,0,0,0-2.182,5.957,8.014,8.014,0,0,0,2.014,5.789A7.186,7.186,0,0,0,19.55-.854q.336.084,1.594.336H22.4A5.481,5.481,0,0,0,24-.686a7.281,7.281,0,0,0,2.685-1.175A7.727,7.727,0,0,0,29.619-8.07,7.817,7.817,0,0,0,27.353-14.447Zm-3.1,11.663A1.964,1.964,0,0,1,22.99-1.609a1.717,1.717,0,0,1-2.1-.755,8.941,8.941,0,0,1-1.259-3.608q-.084-.839-.084-2.559a15.763,15.763,0,0,1,.168-2.643q.42-4.027,2.433-4.027a1.848,1.848,0,0,1,1.342.587q1.594,1.678,1.594,6.461A12.386,12.386,0,0,1,24.249-2.784ZM83.57-7.315A3.752,3.752,0,0,0,82.4-8.7a12.511,12.511,0,0,0-2.349-1.217,7.146,7.146,0,0,1-2.937-1.762,2.03,2.03,0,0,1-.42-1.342,1.956,1.956,0,0,1,.881-1.8,2.658,2.658,0,0,1,2.1-.252,3.352,3.352,0,0,1,2.056,1.72,9.276,9.276,0,0,1,.839,1.846q0,.084.252,0l.252-.084v-3.86l-.252-.084a13.162,13.162,0,0,0-1.93-.5,24.207,24.207,0,0,0-4.027,0,5.215,5.215,0,0,0-3.44,2.685A4.809,4.809,0,0,0,73-11.342,3.629,3.629,0,0,0,74-8.657a5.931,5.931,0,0,0,2.6,1.594,10.177,10.177,0,0,1,2.6,1.259,1.527,1.527,0,0,1,.5.671l.252.42v.629a2.158,2.158,0,0,1-.252.965,2.183,2.183,0,0,1-2.517,1.342A3.411,3.411,0,0,1,75.1-2.7a7.46,7.46,0,0,1-1.678-2.6,1.146,1.146,0,0,0-.252-.461.525.525,0,0,0-.336.042h-.168l.084,3.944q0,.42.126.5a6.927,6.927,0,0,0,1.175.336A13.858,13.858,0,0,0,76.018-.6a9.592,9.592,0,0,0,3.1,0,6.047,6.047,0,0,0,3.146-1.259,4.47,4.47,0,0,0,1.552-2.6A4.432,4.432,0,0,0,83.57-7.315ZM67.8-15.789a5.462,5.462,0,0,0-2.265-.42,6.69,6.69,0,0,0-5.034,2.1,8.172,8.172,0,0,0-2.1,4.027,13.306,13.306,0,0,0-.084,1.846A13.307,13.307,0,0,0,58.4-6.392a7.4,7.4,0,0,0,2.056,3.86A7.224,7.224,0,0,0,64.272-.6a6.781,6.781,0,0,0,2.6,0,6.728,6.728,0,0,0,3.692-1.762q.755-.755.671-.965t-.21-.21a1.32,1.32,0,0,0-.461.168,3.439,3.439,0,0,1-1.049.545,8.255,8.255,0,0,1-1.217.21,5.416,5.416,0,0,1-3.021-.5,4.646,4.646,0,0,1-1.049-.755,3.592,3.592,0,0,1-.8-1.007,8.426,8.426,0,0,1-.839-3.44q-.084-.671,0-.713t4.531-.042h4.447v-.252a9.84,9.84,0,0,0-.252-2.014Q70.564-14.866,67.8-15.789Zm-.755,5.454H66.034l-3.272.084V-10.5a5.049,5.049,0,0,1,.084-.755,8.737,8.737,0,0,1,.965-2.895A1.77,1.77,0,0,1,65.278-15.2q1.51,0,1.762,4.111ZM41.869-16.041a2.789,2.789,0,0,0-1.342-.168h-.168q-2.349.084-3.776,2.769-.336.587-.42.587a6.328,6.328,0,0,1,0-1.678v-1.678l-2.769.587q-3.44.671-3.482.713a.437.437,0,0,0-.042.252v.21l.587.084a1.658,1.658,0,0,1,1.049.587,2.852,2.852,0,0,1,.378,1.342,45.325,45.325,0,0,1,.126,5.076,34.016,34.016,0,0,1-.21,4.489,1.37,1.37,0,0,1-.671,1.007l-.755.252-.5.084v.671h8.81v-.671l-.42-.084a7.759,7.759,0,0,1-1.133-.168,1.035,1.035,0,0,1-.545-.461,3.511,3.511,0,0,1-.336-1.51q-.084-1.133-.084-4.573v-3.44l.084-.168a2.334,2.334,0,0,1,1.175-.587,4.354,4.354,0,0,1,2.769.42q.5.252.5.168l1.426-3.86Q42.2-15.873,41.869-16.041Zm14.1,3.188a5.774,5.774,0,0,0-1.594-1.972,5.261,5.261,0,0,0-2.182-1.049,4.637,4.637,0,0,0-1.972-.084,8.841,8.841,0,0,0-1.888.5,3.707,3.707,0,0,1-.671.252,27.83,27.83,0,0,1-.084-3.524l.084-3.524-6.209,1.175a.2.2,0,0,0-.126.252,1.147,1.147,0,0,1,.042.252l.252.084a3.07,3.07,0,0,1,.755.168,1.8,1.8,0,0,1,.42.336,2.725,2.725,0,0,1,.587,1.762q.084.587.084,7.551T43.379-2.28v1.175l.587.084a18.159,18.159,0,0,0,6.209.5,7.929,7.929,0,0,0,4.363-2.014,8.811,8.811,0,0,0,2.349-6.712A8.4,8.4,0,0,0,55.965-12.853ZM52.189-6.811A7.541,7.541,0,0,1,50.343-2.2a1.971,1.971,0,0,1-1.175.587,2.513,2.513,0,0,1-.923,0q-.336,0-.378-.168t-.126-4.069q-.084-3.9,0-6.083v-2.182l.42-.084a2.464,2.464,0,0,1,.923-.168,2.234,2.234,0,0,1,1.007.252q1.594.755,2.1,3.692a13.558,13.558,0,0,1,.084,1.762A15.725,15.725,0,0,1,52.189-6.811Zm0,0" transform="translate(0 22.25)" fill="#b6c5cb"/>
</svg>
