<svg xmlns="http://www.w3.org/2000/svg" width="84.126" height="23.135" viewBox="0 0 84.126 23.135">
  <path id="ea02" d="M63.094-10.187l-.084-.084L66.8-16.665H64.524l-3.449,5.721-.252.5v.252l.168.421,3.87,6.73h2.187ZM58.636-22.3V-3.036h1.935V-22.469H58.636Zm25.069,5.8a3.266,3.266,0,0,0-.421-.168l-.337-.084a3.9,3.9,0,0,0-.757-.084h-.337l-1.094.252-.673.252-.925.757-.673.925-.421,1.262L77.985-2.952h1.935v-9.759a1.92,1.92,0,0,1,.673-1.514l.252-.252a1.85,1.85,0,0,1,.757-.337h2.44l.084-1.514Zm-8.076,3.365V-13.3l-.252-.925-.252-.5-.841-1.094-1.43-.841-1.178-.168h-.421l-.841.252-1.178.589-.673.673-.673,1.262-.168.841v6.73l.252,1.094.337.673v.084l.421.673.421.421.757.421.841.252h1.094l2.44-.337-.168-1.514L71.591-4.8,71-4.887l-.589-.421-.252-.252-.252-.5-.084-.421V-8.841h4.8a1.061,1.061,0,0,0,.715-.252.842.842,0,0,0,.294-.673Zm-1.935.252v2.1h-3.87v-2.1a1.909,1.909,0,0,1,.379-1.178,1.8,1.8,0,0,1,.967-.673,1.864,1.864,0,0,1,.589-.084H72.1l.421.168.5.337.336.337.168.336Zm-17.33-.168v-.168l-.168-.925-.337-.589-.421-.757-.421-.337L54.6-16.16l-1.01-.5-1.178-.252-.252.084h-.337l-.589.168h-.084l-1.346.841-.421.5-.337.5-.337.925a2.47,2.47,0,0,0-.168.925l.084,6.814.252,1.01.421.673.589.673.589.421.925.421,1.094.168,1.178-.252.841-.421.841-.673.673-1.094.337-1.346-1.935-.084-.084.168a.936.936,0,0,1-.084.421,1.831,1.831,0,0,1-.673.883A1.909,1.909,0,0,1,52.41-4.8l-.337-.084L51.4-5.139,50.98-5.56l-.337-.589-.168-.589v-6.225a1.914,1.914,0,0,1,.757-1.43,1.614,1.614,0,0,1,1.178-.5l.337.084.757.252.421.337h0l.252.337.168.5v.673l.168.084,1.851-.084-.084-.421Zm-10.432.168v-.084l-.084-.421-.5-1.262-.673-1.01-.5-.421-.757-.421-1.178-.337H41.39l-.673.084-1.346.421h-.084l.084,1.514,2.692-.168h.673l.5.252.421.5.252.589v2.1l-2.356-.252-1.767.589-1.01.925-.673,1.514L38.025-6.4l.168.841.168.337.589,1.01,1.01.841.925.421,1.094.168a3.572,3.572,0,0,0,2.187-.757,3.428,3.428,0,0,0,1.178-1.346,4.08,4.08,0,0,0,.421-1.851v-5.973Q45.933-12.795,45.933-12.879ZM44-9.851v3.113a1.356,1.356,0,0,1-.168.589,2.047,2.047,0,0,1-.589.883,1.867,1.867,0,0,1-1.01.463h-.168l-.589-.084L40.8-5.308l-.421-.5L40.128-6.4V-8.168a1.881,1.881,0,0,1,.547-1.388,1.881,1.881,0,0,1,1.388-.547h1.851v.252Zm-8.244-2.944-.084-.168L35.5-14.141l-.421-.925-.673-.757-.673-.5-.673-.337-.589-.168H31.295l-1.346.252v-5.889H28.014V-3.036h1.935V-14.646l2.356.084.673.252.421.337v.084l.337.5.084.337v10.1h2.019v-9.759Zm-10.179-.336v-.5l-.337-.925-.589-1.094h-.084l-.421-.421-.757-.589-1.767-.5H20.527l-1.346.589-.925.757-.673.925-.421.925a6.131,6.131,0,0,0-.084,1.01V-6.57l.168.757.5,1.094.084.252.673.757.673.421.925.337,1.178.084L24.4-3.289,24.228-5.9H21.2l-.589-.252L20.358-6.4l-.252-.5V-8.42H24.06a1.409,1.409,0,0,0,1.094-.463,1.627,1.627,0,0,0,.421-1.136v-3.113Zm-3.029,1.683H20.19v-1.514a1.046,1.046,0,0,1,.337-.757,1.141,1.141,0,0,1,.841-.337l.5.084.421.421.252.589ZM15.9-22.469l-.084-.084-.168-.084-1.6-.252-1.01.252-.841.421-.757.589-.673.841-.589,1.346-.084.5L10.011.245,13.124.076V-11.112h2.356v-3.113H13.208v-4.122a1.141,1.141,0,0,1,.337-.841,1.141,1.141,0,0,1,.841-.337h1.43ZM0-22.385V-3.036H3.113v-19.1L.168-22.3Zm8.328,2.692-.084-.421-.421-.673-.757-.337-.5-.084-.5.084-.252.084-.589.421-.337.589L4.8-19.1l.252.5.5.589.337.168.673.168.421-.084.589-.252.421-.421.337-1.01v-.168ZM5.048-16.917V-3.036H8.16v-13.8L5.048-17Zm0,0" transform="translate(0 22.89)" fill="#b6c5cb"/>
</svg>
