<svg xmlns="http://www.w3.org/2000/svg" width="83.627" height="22.747" viewBox="0 0 83.627 22.747">
  <path id="ea1f" d="M83.627-22.74h-3.6L77.69-16.97,75.6-22.74H72.087l3.68,10.453L71.418-1.5l3.512.418,2.509-6.356L79.864-.5l3.763.5L79.362-12.2ZM65.062-2q.5.084,3.68.335V-22.74h-3.68ZM41.145-2.837h3.6v-7.777h4.265v-3.178H44.741v-5.6h4.934V-22.74h-8.53ZM27.513-19.395h3.261V-2.669l3.6-.084V-19.395h3.345V-22.74h-10.2ZM8.2-9.778,3.6-22.74H0V.007Q1.84-.244,3.429-.411V-12.956L7.61-1l3.93-.335V-22.74H8.2Zm7.276,4.767V-1.75Q19.4-2.084,24-2.335V-5.6q-2.425.084-4.934.335v-5.352h4.265v-3.178H19.067v-5.6H24V-22.74h-8.53ZM56.7-22.74H53.187V-2.669q4.1.167,8.53.418V-5.513Q59.459-5.68,56.7-5.764Zm0,0" transform="translate(0 22.74)" fill="#b6c5cb"/>
</svg>
